<svg xmlns="http://www.w3.org/2000/svg" fill="none" viewBox="0 0 114 37"><g clip-path="url(#a)"><path fill="#939598" d="M7.32 36.998c-.294 0-.582-.003-.874-.01-.605-.008-1.21-.061-1.807-.158a5.686 5.686 0 0 1-1.602-.53 5.226 5.226 0 0 1-1.35-.983c-.4-.394-.734-.85-.987-1.351a5.537 5.537 0 0 1-.525-1.603c-.1-.6-.153-1.206-.161-1.813-.006-.205-.014-.884-.014-.884V7.321s.008-.668.014-.864a12.1 12.1 0 0 1 .16-1.812A5.58 5.58 0 0 1 .7 3.038 5.381 5.381 0 0 1 3.038.697 5.628 5.628 0 0 1 4.634.17C5.235.072 5.84.019 6.449.012L7.32 0h99.354l.883.012c.601.008 1.201.06 1.796.158a5.734 5.734 0 0 1 1.615.53 5.406 5.406 0 0 1 2.335 2.34c.252.503.426 1.04.517 1.596.1.603.157 1.213.168 1.824.003.275.003.568.003.861.008.363.008.709.008 1.056v20.244c0 .352 0 .695-.008 1.04 0 .315 0 .603-.004.9-.011.6-.066 1.2-.164 1.792a5.574 5.574 0 0 1-.523 1.616 5.32 5.32 0 0 1-.981 1.34c-.395.4-.852.734-1.353.99a5.68 5.68 0 0 1-1.613.531c-.597.098-1.202.15-1.807.158-.284.007-.58.01-.868.01l-1.047.002-98.312-.002Z"/><path fill="#fff" d="M23.096 18.79a4.79 4.79 0 0 1 2.279-4.016 4.895 4.895 0 0 0-3.858-2.087c-1.623-.171-3.197.971-4.024.971-.843 0-2.116-.955-3.487-.926a5.135 5.135 0 0 0-4.324 2.638c-1.87 3.24-.475 8 1.316 10.617.896 1.282 1.943 2.714 3.312 2.663 1.341-.055 1.842-.855 3.46-.855 1.604 0 2.074.855 3.47.823 1.44-.023 2.346-1.287 3.21-2.582a10.61 10.61 0 0 0 1.469-2.99 4.623 4.623 0 0 1-2.823-4.255v-.001Zm-2.64-7.825a4.715 4.715 0 0 0 1.078-3.376 4.79 4.79 0 0 0-3.1 1.605 4.485 4.485 0 0 0-1.106 3.251 3.96 3.96 0 0 0 3.129-1.48Zm19.588 14.44h-4.575l-1.099 3.247h-1.938l4.334-12.012h2.013l4.333 12.012h-1.971l-1.098-3.247h.001Zm-4.102-1.498h3.627l-1.787-5.269h-.05l-1.789 5.27Zm16.529.366c0 2.722-1.455 4.471-3.651 4.471a2.965 2.965 0 0 1-2.754-1.532h-.042v4.337H44.23V19.894h1.74v1.457H46a3.106 3.106 0 0 1 2.786-1.547c2.221 0 3.685 1.756 3.685 4.47h-.001Zm-1.846 0c0-1.772-.916-2.938-2.312-2.938-1.373 0-2.296 1.19-2.296 2.94 0 1.764.923 2.945 2.296 2.945 1.396 0 2.312-1.157 2.312-2.947Zm11.478 0c0 2.722-1.456 4.471-3.652 4.471a2.966 2.966 0 0 1-2.754-1.532h-.041v4.337H53.86V19.894H55.6v1.457h.033a3.107 3.107 0 0 1 2.786-1.547c2.221 0 3.685 1.756 3.685 4.47Zm-1.846 0c0-1.772-.915-2.938-2.313-2.938-1.372 0-2.295 1.19-2.295 2.94 0 1.764.923 2.945 2.295 2.945 1.398 0 2.313-1.157 2.313-2.947Zm8.212 1.032c.133 1.192 1.289 1.973 2.87 1.973 1.513 0 2.603-.781 2.603-1.856 0-.933-.657-1.49-2.213-1.873l-1.556-.375c-2.203-.532-3.227-1.564-3.227-3.238 0-2.073 1.805-3.496 4.367-3.496 2.537 0 4.275 1.423 4.334 3.496h-1.813c-.108-1.199-1.099-1.922-2.546-1.922-1.447 0-2.437.732-2.437 1.797 0 .85.632 1.35 2.18 1.732l1.322.325c2.463.583 3.486 1.572 3.486 3.33 0 2.247-1.79 3.654-4.634 3.654-2.662 0-4.459-1.374-4.575-3.546h1.84v-.001Zm11.246-7.483v2.073h1.665v1.423h-1.665v4.828c0 .75.334 1.1 1.066 1.1.197-.004.394-.018.59-.042v1.415c-.329.061-.663.09-.998.083-1.772 0-2.463-.666-2.463-2.364v-5.02H76.64v-1.424h1.271v-2.072h1.805Zm2.628 6.451c0-2.754 1.622-4.486 4.15-4.486 2.538 0 4.152 1.732 4.152 4.486 0 2.764-1.606 4.488-4.151 4.488s-4.15-1.724-4.15-4.487Zm6.471 0c0-1.89-.865-3.006-2.32-3.006-1.456 0-2.32 1.126-2.32 3.006 0 1.898.864 3.005 2.32 3.005 1.455 0 2.32-1.107 2.32-3.005Zm3.312-4.378h1.713v1.49h.041a2.088 2.088 0 0 1 2.106-1.582c.207-.001.413.022.615.067v1.68a2.51 2.51 0 0 0-.807-.107 1.812 1.812 0 0 0-1.872 2.015v5.194h-1.796v-8.757Zm12.757 6.185c-.242 1.59-1.789 2.68-3.768 2.68-2.546 0-4.126-1.706-4.126-4.445 0-2.746 1.589-4.529 4.05-4.529 2.421 0 3.944 1.665 3.944 4.32v.617h-6.18v.108a2.286 2.286 0 0 0 1.409 2.314c.299.122.621.18.944.167a1.98 1.98 0 0 0 2.022-1.232h1.705Zm-6.072-2.613h4.375a2.098 2.098 0 0 0-1.3-2.066 2.102 2.102 0 0 0-.847-.158 2.218 2.218 0 0 0-2.228 2.224ZM34.666 10.038h.771a.967.967 0 0 0 1.088-.92c0-.533-.4-.876-1.079-.876a1.027 1.027 0 0 0-1.164.904h-.847a1.811 1.811 0 0 1 2.038-1.688c1.136 0 1.935.636 1.935 1.551a1.34 1.34 0 0 1-1.047 1.32v.069a1.343 1.343 0 0 1 1.282 1.395 1.927 1.927 0 0 1-2.154 1.716 1.914 1.914 0 0 1-2.166-1.708h.86c.052.552.558.908 1.306.908s1.236-.4 1.236-.963c0-.572-.46-.925-1.263-.925h-.796v-.783Zm3.954 2.1c0-.785.584-1.236 1.619-1.3l1.178-.069v-.375c0-.46-.302-.72-.89-.72-.48 0-.811.176-.907.484h-.832c.088-.748.792-1.228 1.779-1.228 1.091 0 1.707.543 1.707 1.464v2.975h-.828v-.612h-.068a1.465 1.465 0 0 1-1.307.685 1.311 1.311 0 0 1-1.336-.77 1.316 1.316 0 0 1-.115-.534Zm2.798-.372v-.365l-1.063.068c-.6.04-.871.244-.871.628 0 .393.339.62.806.62a1.026 1.026 0 0 0 1.128-.951Zm3.136-2.03v3.633h-.86V9.015h2.866v.723h-2.006Zm7.212 1.454c0 1.384-.7 2.25-1.798 2.25a1.417 1.417 0 0 1-1.34-.73h-.068v2.107h-.859V9.014h.828v.72h.063a1.513 1.513 0 0 1 1.367-.792c1.107 0 1.807.864 1.807 2.249Zm-.884 0c0-.92-.435-1.476-1.163-1.476-.722 0-1.175.567-1.175 1.48 0 .907.452 1.475 1.172 1.475.731 0 1.166-.555 1.166-1.48Zm2.028 3.74v-.74c.092.01.186.016.28.015a.744.744 0 0 0 .787-.608l.064-.212-1.575-4.371h.936l1.09 3.46h.069l1.087-3.46h.911l-1.623 4.535c-.372 1.06-.783 1.4-1.67 1.4a3.743 3.743 0 0 1-.356-.02v.001Zm4.318-2.797h.855c.085.384.444.585.947.585.572 0 .923-.252.923-.645 0-.42-.316-.62-.923-.62h-.651v-.668h.64c.519 0 .783-.2.783-.563 0-.32-.256-.564-.783-.564-.48 0-.832.204-.887.547h-.829A1.526 1.526 0 0 1 59.02 8.93c1.034 0 1.626.468 1.626 1.204a.895.895 0 0 1-.687.892v.068a.976.976 0 0 1 .852.98c0 .827-.705 1.375-1.78 1.375-.95 0-1.723-.436-1.802-1.316Zm4.819 1.236V9.015h.85v2.995h.069l2.005-2.995h.852v4.355h-.852v-3.012h-.064l-2.01 3.012h-.85Zm8.466-3.632h-1.37v3.632h-.86V9.738h-1.371v-.723h3.601v.723Zm4.627 2.457a1.77 1.77 0 0 1-1.887 1.26 1.975 1.975 0 0 1-1.942-1.4 1.98 1.98 0 0 1-.068-.849 2.008 2.008 0 0 1 2.007-2.275c1.21 0 1.942.828 1.942 2.195v.3H72.12v.049a1.15 1.15 0 0 0 1.159 1.248 1.042 1.042 0 0 0 1.034-.528h.829-.001Zm-3.021-1.404h2.197a1.053 1.053 0 0 0-1.07-1.129 1.111 1.111 0 0 0-1.127 1.13v-.001Zm6.663-1.776h1.962c.851 0 1.351.432 1.351 1.108a.938.938 0 0 1-.735.92v.067a.993.993 0 0 1 .93 1.004c0 .76-.57 1.257-1.526 1.257h-1.982V9.015Zm.852.66v1.127h.85c.52 0 .768-.2.768-.568 0-.339-.216-.56-.672-.56h-.947Zm0 1.76v1.275h1.018c.507 0 .78-.223.78-.636 0-.436-.308-.64-.888-.64h-.91Z"/></g><defs><clipPath id="a"><path fill="#fff" d="M0 0h114v37H0z"/></clipPath></defs></svg>
