<svg xmlns="http://www.w3.org/2000/svg" fill="none" viewBox="0 0 123 37"><g clip-path="url(#a)"><path fill="#939598" d="M118.445 37H4.556C2.005 37 0 34.873 0 32.375V4.625C0 2.036 2.096 0 4.556 0h113.889C120.995 0 123 2.127 123 4.625v27.75c0 2.498-2.005 4.625-4.555 4.625Z"/><path fill="#fff" d="M62.094 19.853c-2.184 0-3.914 1.64-3.914 3.917a3.889 3.889 0 0 0 3.914 3.915c2.185 0 3.915-1.638 3.915-3.915 0-2.368-1.729-3.917-3.914-3.917Zm0 6.193c-1.183 0-2.184-1.001-2.184-2.367s1-2.368 2.184-2.368c1.184 0 2.185.91 2.185 2.368 0 1.366-1.001 2.368-2.185 2.368Zm-8.466-6.193c-2.185 0-3.914 1.64-3.914 3.917a3.89 3.89 0 0 0 3.913 3.915c2.186 0 3.915-1.638 3.915-3.915 0-2.368-1.73-3.917-3.914-3.917Zm0 6.193c-1.184 0-2.185-1.001-2.185-2.367s1.002-2.368 2.185-2.368c1.184 0 2.185.91 2.185 2.368 0 1.366-1.001 2.368-2.185 2.368Zm-10.106-5.008v1.639h3.916c-.092.91-.456 1.639-.911 2.095-.547.546-1.456 1.184-3.005 1.184-2.457 0-4.278-1.913-4.278-4.371 0-2.46 1.911-4.372 4.278-4.372 1.275 0 2.276.546 3.005 1.184l1.183-1.184c-1-.912-2.276-1.64-4.097-1.64-3.277 0-6.099 2.732-6.099 6.01 0 3.28 2.821 6.012 6.1 6.012 1.82 0 3.095-.546 4.187-1.73 1.093-1.093 1.457-2.642 1.457-3.826 0-.364 0-.728-.092-1.002h-5.643v.001Zm41.333 1.275c-.365-.91-1.275-2.46-3.278-2.46-2.004 0-3.641 1.55-3.641 3.917 0 2.186 1.638 3.915 3.823 3.915 1.73 0 2.822-1.092 3.187-1.73l-1.275-.91c-.456.637-1.001 1.092-1.912 1.092-.91 0-1.456-.364-1.911-1.184l5.188-2.185-.181-.455Zm-5.28 1.275c0-1.458 1.183-2.277 2.001-2.277.638 0 1.275.364 1.458.82l-3.46 1.457Zm-4.28 3.734h1.73V15.937h-1.73v11.385Zm-2.731-6.648c-.456-.457-1.184-.912-2.094-.912-1.912 0-3.733 1.73-3.733 3.917 0 2.186 1.73 3.825 3.733 3.825.91 0 1.639-.456 2.003-.91h.091v.546c0 1.457-.82 2.277-2.094 2.277-1.002 0-1.73-.73-1.912-1.367l-1.457.638c.456 1.001 1.549 2.277 3.46 2.277 2.004 0 3.642-1.184 3.642-4.008v-6.921h-1.639v.637Zm-2.003 5.372c-1.183 0-2.185-1.001-2.185-2.367s1.002-2.368 2.185-2.368 2.094 1.002 2.094 2.368c0 1.366-.91 2.368-2.093 2.368h-.001Zm22.214-10.108h-4.097V27.32h1.73v-4.28h2.367c1.912 0 3.733-1.366 3.733-3.552 0-2.185-1.821-3.552-3.733-3.552Zm.09 5.463h-2.457v-3.915h2.458c1.275 0 2.003 1.093 2.003 1.912-.091 1.002-.82 2.004-2.003 2.004Zm10.471-1.639c-1.275 0-2.55.547-3.005 1.73l1.547.638c.365-.636.911-.819 1.549-.819.91 0 1.729.547 1.821 1.457v.091c-.274-.182-1.002-.456-1.73-.456-1.64 0-3.278.912-3.278 2.55 0 1.55 1.366 2.55 2.822 2.55 1.184 0 1.73-.546 2.186-1.092h.09v.91h1.639v-4.37c-.182-2.005-1.729-3.189-3.641-3.189Zm-.183 6.284c-.546 0-1.365-.273-1.365-1.001 0-.91 1.001-1.184 1.82-1.184.729 0 1.093.182 1.548.364-.182 1.093-1.092 1.821-2.003 1.821Zm9.56-6.01-1.912 4.917h-.092l-2.002-4.917h-1.821l3.005 6.921-1.73 3.825h1.73l4.643-10.747h-1.821ZM97.418 27.32h1.73V15.937h-1.73v11.384Z"/><path fill="url(#b)" d="M9.565 6.83c-.273.273-.456.728-.456 1.275v20.127c0 .547.183 1.002.456 1.275l.09.091 11.29-11.293v-.182L9.564 6.83v.001Z"/><path fill="url(#c)" d="m24.677 22.131-3.733-3.734v-.274l3.733-3.734.091.09 4.461 2.551c1.275.73 1.275 1.913 0 2.642l-4.552 2.458v.001Z"/><path fill="url(#d)" d="m24.768 22.04-3.824-3.826-11.38 11.384c.457.456 1.093.456 1.913.091l13.291-7.65Z"/><path fill="url(#e)" d="M24.768 14.39 11.477 6.83c-.82-.456-1.457-.364-1.912.092l11.38 11.292 3.823-3.824Z"/><path fill="#939598" d="m24.677 21.95-13.2 7.468c-.729.456-1.366.364-1.821 0l-.091.09.09.092c.456.364 1.093.455 1.822 0l13.2-7.65Z" opacity=".2"/><path fill="#939598" d="M9.565 29.417c-.273-.274-.364-.73-.364-1.276v.092c0 .546.181 1.001.455 1.275v-.091h-.091Zm19.664-10.019-4.552 2.55.092.091 4.46-2.55c.638-.364.911-.82.911-1.275 0 .456-.364.82-.91 1.184Z" opacity=".12"/><path fill="#fff" d="m11.478 6.922 17.752 10.11c.546.364.91.728.91 1.183 0-.456-.273-.91-.91-1.275L11.477 6.832C10.203 6.103 9.2 6.741 9.2 8.198v.09c0-1.456 1.002-2.094 2.277-1.365Z" opacity=".25"/><path fill="#fff" stroke="#fff" stroke-miterlimit="10" stroke-width=".2" d="M38.424 13.023h-.636v-1.821h.545c.456-.365.729-1.093.729-2.095V6.374h3.642v4.828h.636v1.821h-.637V11.84h-4.188v1.184h-.09ZM39.7 9.107c0 .82-.182 1.548-.546 2.095h2.73V7.103h-2.275v2.004h.091Zm9.014 2.003c-.548.547-1.185.82-2.004.82-.82 0-1.457-.274-2.003-.82-.546-.547-.819-1.184-.819-2.004 0-.82.273-1.457.819-2.004.547-.546 1.183-.819 2.003-.819.82 0 1.456.273 2.003.82.547.546.82 1.183.82 2.003 0 .82-.274 1.457-.82 2.004Zm-3.46-.456c.364.365.91.638 1.456.638.546 0 1.093-.182 1.456-.637a2.2 2.2 0 0 0 .638-1.549c0-.637-.182-1.184-.637-1.549-.364-.363-.91-.636-1.457-.636-.546 0-1.092.181-1.457.636a2.198 2.198 0 0 0-.636 1.55c0 .636.181 1.183.636 1.548Zm7.829 1.276c-.82 0-1.457-.274-2.003-.82-.547-.547-.82-1.184-.82-2.004 0-.82.273-1.457.82-2.004.546-.546 1.183-.819 2.003-.819.82 0 1.456.273 2.002.91l-.455.457a1.944 1.944 0 0 0-1.548-.73c-.636 0-1.092.182-1.546.637-.456.365-.638.912-.638 1.55 0 .636.182 1.183.637 1.548a2.2 2.2 0 0 0 1.548.637c.636 0 1.184-.273 1.639-.82l.455.456c-.273.273-.547.546-.911.729a2.52 2.52 0 0 1-1.183.273Zm5.007-.09h-.729V7.011h-1.547v-.637h3.733v.637h-1.548v4.827h.09Zm6.282-5.466-2.094 4.645c-.273.638-.729 1.002-1.275 1.002-.181 0-.364 0-.546-.09l.182-.638c.092.09.273.09.364.09.182 0 .274 0 .365-.09a1.26 1.26 0 0 0 .273-.365l.182-.455L60 6.466h.82l1.365 3.096 1.274-3.096h.911v-.092Zm.82 5.465V6.375h3.914v5.464h-.729V7.012h-2.549v4.827h-.637Zm5.188 0V6.375h.729v2.367h2.73V6.374h.73v5.464h-.73V9.38h-2.73v2.46h-.729Zm9.924-.73c-.546.548-1.184.82-2.003.82-.82 0-1.457-.273-2.003-.82-.546-.546-.82-1.183-.82-2.003 0-.82.274-1.457.82-2.004.546-.546 1.184-.819 2.003-.819.82 0 1.457.273 2.003.82.546.546.819 1.183.819 2.003-.09.82-.364 1.457-.82 2.004Zm-3.55-.455c.363.365.91.638 1.455.638.547 0 1.093-.182 1.457-.637.364-.365.637-.912.637-1.549 0-.637-.18-1.184-.637-1.549-.364-.363-.91-.636-1.457-.636-.546 0-1.092.181-1.456.636a2.197 2.197 0 0 0 0 3.098Zm7.192 1.185V6.375h2.002c.455 0 .82.18 1.092.455.274.273.456.637.456 1.092 0 .274-.09.456-.182.73a.934.934 0 0 1-.546.455c.272.09.455.273.637.455s.273.456.273.82c0 .456-.183.82-.455 1.092-.365.274-.729.456-1.184.456h-2.093v-.09Zm.727-3.097h1.275a.828.828 0 0 0 .637-.272c.183-.183.273-.365.273-.547 0-.182-.09-.365-.273-.547a.828.828 0 0 0-.637-.273h-1.275v1.64Zm0 2.46h1.457a.827.827 0 0 0 .638-.274.826.826 0 0 0 .272-.637.988.988 0 0 0-.272-.638.83.83 0 0 0-.638-.273h-1.366v1.822h-.09Z"/></g><defs><linearGradient id="b" x1="19.943" x2="4.659" y1="7.932" y2="23.21" gradientUnits="userSpaceOnUse"><stop stop-color="#00A0FF"/><stop offset=".007" stop-color="#00A1FF"/><stop offset=".26" stop-color="#00BEFF"/><stop offset=".512" stop-color="#00D2FF"/><stop offset=".76" stop-color="#00DFFF"/><stop offset="1" stop-color="#00E3FF"/></linearGradient><linearGradient id="c" x1="30.9" x2="8.871" y1="18.215" y2="18.215" gradientUnits="userSpaceOnUse"><stop stop-color="#FFE000"/><stop offset=".409" stop-color="#FFBD00"/><stop offset=".775" stop-color="orange"/><stop offset="1" stop-color="#FF9C00"/></linearGradient><linearGradient id="d" x1="22.699" x2="1.972" y1="20.305" y2="41.024" gradientUnits="userSpaceOnUse"><stop stop-color="#FF3A44"/><stop offset="1" stop-color="#C31162"/></linearGradient><linearGradient id="e" x1="6.74" x2="15.995" y1=".16" y2="9.412" gradientUnits="userSpaceOnUse"><stop stop-color="#32A071"/><stop offset=".069" stop-color="#2DA771"/><stop offset=".476" stop-color="#15CF74"/><stop offset=".801" stop-color="#06E775"/><stop offset="1" stop-color="#00F076"/></linearGradient><clipPath id="a"><path fill="#fff" d="M0 0h123v37H0z"/></clipPath></defs></svg>
