<svg xmlns="http://www.w3.org/2000/svg" width="48" height="48" fill="none" viewBox="0 0 48 48"><path fill="#172156" d="M28.218 28.118H6.738a5.473 5.473 0 1 0 0 10.94h21.48a5.472 5.472 0 1 0 0-10.94Zm.033 8.209H6.703a2.737 2.737 0 0 1 0-5.472H28.25a2.737 2.737 0 0 1 0 5.472Z"/><path fill="#172156" d="M11.931 32.962a2.736 2.736 0 1 1-5.325 1.257 2.736 2.736 0 0 1 5.325-1.257ZM25.885 10.454h2.797v8.27h-2.797v-8.27ZM19.417 31.655a2.736 2.736 0 1 1-3.87 3.87 2.736 2.736 0 0 1 3.87-3.87ZM28.385 33.148a2.736 2.736 0 1 1-5.403.877 2.736 2.736 0 0 1 5.403-.877ZM31.507 19.842h-8.421v7.084h8.45a1.622 1.622 0 0 0 1.622-1.617v-3.85a1.622 1.622 0 0 0-1.65-1.617ZM1.824 21.459v3.85a1.62 1.62 0 0 0 1.623 1.617h1.678v-7.084H3.447a1.623 1.623 0 0 0-1.623 1.617ZM6.3 8.898v18.028h15.668v-10.15l-7.906-7.879H6.3Zm10.632 10.385H8.695v-8.208h4.108l4.129 4.101v4.107ZM37.92 16.05h-3.358v13.097a3.685 3.685 0 0 0 3.688 3.688h8.679v-2.798l-5.68-1.83L37.92 16.05Z"/></svg>
