<svg xmlns="http://www.w3.org/2000/svg" width="48" height="48" fill="none" viewBox="0 0 48 48"><path fill="#172156" fill-rule="evenodd" d="M24.44 33.416c.078 1.001.065 2.882-.02 3.773-.07.728-.866.737-.923-.01-.074-.968-.038-3.052-.024-3.742.016-.832.879-1.136.966-.02Zm-.956-8.366c.025-.74.94-1.1.949.01l.03 4.004c-.162.466-.969.497-.966-.293.003-1.073-.047-2.72-.014-3.72l.001-.001Zm.058-8.181c.002-.231.03-.401.074-.523.171-.462.818-.368.886.187.126 1.044.19 3.252-.027 4.175-.117.498-.775.429-.913.007-.169-.514-.022-3.162-.02-3.845v-.001Zm.034-5.008c-.106-1.07-.18-2.947.125-3.756.182-.482.618-.583.714-.03.12.683.247 2.583.175 3.727-.06.95-.878 1.447-1.014.06Zm.14 34.226c-.102-.12-.17-.27-.216-.439-.12-.442-.054-3.835-.03-4.2.036-.528.87-.602.93.015.099 1.016.154 3.172-.013 4.22-.024.158-.068.302-.142.395l14.229-.031-1.743-5.599c-.59-1.849-1.15-3.659-1.738-5.495-1.177-3.673-2.291-7.391-3.485-11.057-.668-2.053-6.943-21.804-6.91-21.963-.069.552.334 2.65-.67 2.424-.63-.142-.347-1.778-.44-2.404L9.326 46.047l14.39.04Zm6.935-30.98c-.13-.336-3.717-9.903-4.127-10.242l12.971 41.166c3.447.223 3.168-.05 2.653-1.371-.17-.436-.34-.842-.498-1.253L30.65 15.106ZM8.324 46.037c.208-1.113 6.483-20.268 6.907-21.636 1.69-5.46 3.532-10.807 5.204-16.215.339-1.096 1.635-4.557 1.658-5.373l-8.345 21.47c-1.994 5.342-4.215 10.812-6.291 16.169-2.409 6.213-2.949 5.713.867 5.585Z" clip-rule="evenodd"/></svg>
