<svg xmlns="http://www.w3.org/2000/svg" width="48" height="48" fill="none" viewBox="0 0 48 48"><path fill="#172156" fill-rule="evenodd" d="M12.987 30.802c4.732 1.833 6.833 10.254 2.585 11.773-1.747.625-6.515.502-7.908-.054-1.214-.483-2.408-2.574-2.63-3.744-.398-2.087 1.93-5.724 3.012-7.35 1.24-1.861 3.092-1.342 4.942-.625ZM9.45 5.172c-.632-.495-1.525.114-2.178.623-.909.707-.961.859-1.08 2.114-.442 4.707 2.335 5.667 3.5 3.822 1.646-2.61 2.18-4.665-.242-6.56ZM8.36 24.73c-.415-.516-1.222-.29-1.824-.078-.836.294-.903.393-1.209 1.282-1.146 3.331.882 4.712 2.113 3.647 1.741-1.505 2.51-2.875.92-4.851ZM28.73 5.304c-.481-.516-1.415-.29-2.11-.078-.968.295-1.046.393-1.399 1.282-1.326 3.331 1.02 4.712 2.444 3.647 2.013-1.505 2.903-2.875 1.064-4.851Zm11.685 11.97c-1.844.85-14.003-1.012-9.706-7.905.698-1.12 1.998-2.512 2.851-3.463 1.009-1.125 3.014-.967 4.385-.8 8.51 1.038 4.033 11.447 2.47 12.169ZM19.348 5.585c4.309 1.67 6.222 9.337 2.354 10.72-1.591.57-5.933.457-7.201-.049-1.105-.44-2.192-2.344-2.395-3.41-.362-1.899 1.758-5.21 2.743-6.69 1.128-1.697 2.816-1.224 4.5-.571Zm-8.054 9.925c-.695-.747-2.047-.418-3.055-.112-1.4.426-1.513.57-2.025 1.855-1.92 4.824 1.477 6.823 3.54 5.282 2.915-2.178 4.202-4.163 1.54-7.025Zm15.148-.633c-1.732-.062-3.561 3.145-2.614 5.344.766 1.78 1.448 3.807 3.109 3.722 1.527-.078 3.554-.654 3.8-2.357.135-.926.16-2.103.051-3.038-.33-2.858-1.527-3.57-4.346-3.67Zm9.18 13.506c1.638-.48 5.335-2.548 5.819-3.888.517-1.431-.736-3.776-1.6-4.729-.855-.944-1.66-1.103-3.225-.34-2.068 1.009-5.415 3.452-5.511 5.473-.104 2.163 2.297 4.135 4.518 3.484Zm-14.85 2.424c1.397-.644 5.394-9.939-2.204-10.866-1.225-.149-3.015-.29-3.916.714-.761.85-1.922 2.093-2.546 3.093-3.837 6.154 7.02 7.818 8.667 7.058Zm8.505-4.406c2.663 2.862 1.375 4.847-1.54 7.025-2.062 1.541-5.46-.458-3.54-5.282.512-1.286.624-1.429 2.025-1.855 1.008-.307 2.36-.635 3.055.112Zm10.764 15.172c4.095-2.996 3.946-11.673-.55-12.04-1.85-.152-6.424 1.201-7.626 2.098-1.047.782-1.66 3.11-1.572 4.298.157 2.118 3.347 5.029 4.812 6.319 1.68 1.477 3.335.496 4.935-.675Zm-19.83-5.337c-.86.656-.252 2.168.28 3.303.741 1.579.94 1.72 2.659 2.447 6.445 2.729 8.533-.693 6.274-3.138-3.197-3.457-5.918-5.12-9.213-2.611Z" clip-rule="evenodd"/></svg>
