<svg xmlns="http://www.w3.org/2000/svg" width="48" height="48" fill="none" viewBox="0 0 48 48"><path fill="#172156" d="M42.761 33.374c0-.026.013-.052.013-.078L40.671 22.79a.922.922 0 0 0-.901-.73h-7.498V8.254a.936.936 0 0 0-.68-.887L15.814 3.165a.958.958 0 0 0-.797.157.94.94 0 0 0-.352.73v5.26c.001.504.41.912.914.913a1.188 1.188 0 1 1-1.189 1.188.914.914 0 0 0-1.828 0c.001.408.086.812.248 1.187H9.112a.921.921 0 0 0-.888.692l-1.332 5.31h-.784a.909.909 0 0 0-.915.914v6.003a.907.907 0 0 0 .915.913h.587v2.845c.002.504.41.912.915.913h3.004a.917.917 0 0 0 .915-.913v-2.845h8.687v2.845a.926.926 0 0 0 .914.913h3.018a.914.914 0 0 0 .901-.913v-2.845h.6a.907.907 0 0 0 .902-.913v-6.003a.903.903 0 0 0-.901-.913h-.797l-1.333-5.311a.9.9 0 0 0-.888-.692h-4.284a2.986 2.986 0 0 0-1.855-4.045V5.24l13.95 3.719v23.606H6.108a.91.91 0 0 0-.914.914v7.347a.906.906 0 0 0 .914.913h3.41a4.062 4.062 0 0 0 5.72 2.756 4.055 4.055 0 0 0 2.195-2.756h13.115a4.062 4.062 0 0 0 5.72 2.756 4.055 4.055 0 0 0 2.196-2.756h3.41a.908.908 0 0 0 .914-.913v-7.347a.304.304 0 0 0-.026-.105ZM21.927 14.426l1.045 4.176H8.785l1.045-4.176h12.097ZM13.476 43.07a2.242 2.242 0 0 1-2.247-2.232 2.24 2.24 0 0 1 4.48-.013 2.243 2.243 0 0 1-2.234 2.245Zm21.03 0a2.24 2.24 0 0 1-2.233-2.24 2.237 2.237 0 0 1 2.238-2.236 2.24 2.24 0 0 1 2.242 2.231 2.24 2.24 0 0 1-2.247 2.245Z"/></svg>
