<svg xmlns="http://www.w3.org/2000/svg" width="48" height="48" fill="none" viewBox="0 0 48 48"><path fill="#172156" d="M45.576 37.97 27.213 6.285c-.637-1.126-1.91-1.812-3.232-1.812a3.72 3.72 0 0 0-3.233 1.861L2.386 37.97c-.637 1.127-.587 2.596 0 3.722.637 1.126 1.959 1.86 3.232 1.86h36.727c1.273 0 2.595-.734 3.232-1.86.588-1.077.636-2.547 0-3.722Zm-38.93 1.37L23.98 9.371v.049l17.335 29.92H6.646Z"/><path fill="#172156" d="M27.556 38.557h12.439l-4.407-7.59c-1.372.636-2.155 1.811-2.89 2.79l-4.995-2.888-2.252-8.52c-.098-.49-.588-1.03-1.126-1.274a1.115 1.115 0 0 0-.539-.147h-3.868c-.588 0-.98.294-1.273.784l-1.763 2.938c-.294.539-.098 1.322.293 1.47l2.35 1.37-.097.098c-.245.49-.049 1.176.343 1.42l5.044 2.792v5.435c0 .588.44 1.029 1.028 1.029.294 0 .588-.098.784-.343a.967.967 0 0 0 .294-.686V31.8l4.994 2.89c-1.126 1.028-2.35.538-3.28 1.517a6.104 6.104 0 0 0-1.079 2.35ZM20.162 26.46l-1.616-.93 1.616-2.742h2.057l-2.057 3.672Zm2.938 1.763 1.371-2.4 1.029 3.771-2.4-1.37ZM26.673 22.005c1.126 0 1.763-.93 1.763-2.154 0-1.078-.832-1.812-1.763-1.96-.098 0-.245-.048-.343-.048-1.077 0-1.42.98-1.42 2.204 0 1.224.686 1.958 1.763 1.958Z"/><path fill="#172156" d="M21.728 30.673 19.475 29.4l.294 1.567c.049.343.245 1.028 0 1.371l-2.987 4.26c-.294.44-.147 1.176.245 1.47.587.44 1.322-.05 1.47-.245l3.182-4.554c.098-.196.343-.882.245-1.518.049-.05-.098-1.078-.196-1.078Z"/></svg>
