<svg xmlns="http://www.w3.org/2000/svg" fill="none" viewBox="0 0 20 20"><path stroke="url(#a)" stroke-linecap="round" stroke-linejoin="round" stroke-width="1.5" d="M2.492 4.06c.263-.436 1.716-2.024 2.752-1.976.31.026.584.213.806.43.511.5 1.974 2.387 2.057 2.784.202.974-.959 1.535-.604 2.517.906 2.215 2.466 3.776 4.683 4.68.98.355 1.542-.805 2.516-.602.396.083 2.284 1.545 2.783 2.056.217.222.405.497.43.806.04 1.092-1.647 2.564-1.975 2.753-.776.554-1.787.545-3.02-.028-3.442-1.432-8.942-6.828-10.4-10.4-.558-1.226-.597-2.244-.028-3.02Z" clip-rule="evenodd"/><defs><linearGradient id="a" x1="6.538" x2="16.103" y1="3.033" y2="3.437" gradientUnits="userSpaceOnUse"><stop stop-color="#1D65A8"/><stop offset="1" stop-color="#14538D"/></linearGradient></defs></svg>
