<svg xmlns="http://www.w3.org/2000/svg" fill="none" viewBox="0 0 20 20"><path stroke="url(#a)" stroke-linecap="round" stroke-linejoin="round" stroke-width="1.5" d="m14.39 7.55-3.555 2.863a1.853 1.853 0 0 1-2.288 0L4.962 7.55"/><path stroke="url(#b)" stroke-linecap="round" stroke-linejoin="round" stroke-width="1.5" d="M5.74 2.917h7.857a4.13 4.13 0 0 1 2.983 1.325 4.18 4.18 0 0 1 1.105 3.086v5.44a4.18 4.18 0 0 1-1.105 3.087 4.13 4.13 0 0 1-2.983 1.325H5.74c-2.433 0-4.073-1.98-4.073-4.412v-5.44c0-2.432 1.64-4.411 4.073-4.411Z" clip-rule="evenodd"/><defs><linearGradient id="a" x1="7.614" x2="13.236" y1="7.746" y2="8.434" gradientUnits="userSpaceOnUse"><stop stop-color="#1D65A8"/><stop offset="1" stop-color="#14538D"/></linearGradient><linearGradient id="b" x1="6.176" x2="15.852" y1="3.772" y2="4.232" gradientUnits="userSpaceOnUse"><stop stop-color="#1D65A8"/><stop offset="1" stop-color="#14538D"/></linearGradient></defs></svg>
