<svg xmlns="http://www.w3.org/2000/svg" fill="none" viewBox="0 0 341 132"><path fill="#DCE0EA" stroke="#DCE0EA" stroke-width="4" d="M165.994 2.052c-11.225 0-21.695 2.914-31.409 8.741-9.39 5.498-16.783 13.029-22.18 22.594-5.721 9.896-8.581 20.56-8.581 31.995 0 11.435 2.86 22.1 8.581 31.995 5.397 9.566 12.79 17.152 22.18 22.759 9.714 5.718 20.184 8.576 31.409 8.576 11.225 0 21.695-2.858 31.409-8.576 9.39-5.607 16.837-13.193 22.342-22.759 5.613-9.895 8.419-20.56 8.419-31.995 0-11.434-2.806-22.1-8.419-31.995-5.505-9.565-12.952-17.096-22.342-22.594-9.714-5.827-20.184-8.74-31.409-8.74Zm0 10.555c9.39 0 18.133 2.42 26.228 7.257 7.771 4.618 13.923 10.885 18.457 18.8 4.749 8.247 7.123 17.153 7.123 26.718 0 9.566-2.374 18.471-7.123 26.718-4.534 7.916-10.686 14.183-18.457 18.801-8.095 4.837-16.838 7.256-26.228 7.256s-18.133-2.419-26.228-7.256c-7.771-4.618-13.923-10.885-18.457-18.801-4.749-8.246-7.123-17.152-7.123-26.718 0-9.565 2.374-18.471 7.123-26.717 4.534-7.916 10.686-14.183 18.457-18.801 8.095-4.838 16.838-7.257 26.228-7.257ZM142.68 44.272c-2.158 0-3.993.77-5.504 2.31-1.511 1.538-2.267 3.407-2.267 5.606 0 2.2.756 4.069 2.267 5.608 1.511 1.54 3.346 2.309 5.504 2.309 2.159 0 3.994-.77 5.505-2.31 1.511-1.538 2.267-3.408 2.267-5.607 0-2.199-.756-4.068-2.267-5.607-1.511-1.54-3.346-2.309-5.505-2.309Zm46.628 0c-2.159 0-3.994.77-5.505 2.31-1.511 1.538-2.266 3.407-2.266 5.606 0 2.2.755 4.069 2.266 5.608 1.511 1.54 3.346 2.309 5.505 2.309 2.158 0 3.993-.77 5.504-2.31 1.511-1.538 2.267-3.408 2.267-5.607 0-2.199-.756-4.068-2.267-5.607-1.511-1.54-3.346-2.309-5.504-2.309Zm-23.314 31.665c-6.8 0-13.168 1.594-19.104 4.783-5.721 3.188-10.524 7.476-14.409 12.864l8.418 6.102c2.915-4.068 6.53-7.257 10.848-9.566 4.425-2.418 9.174-3.628 14.247-3.628s9.768 1.21 14.085 3.629c4.426 2.308 8.095 5.497 11.01 9.565l8.419-6.102c-3.886-5.388-8.689-9.676-14.41-12.864-5.936-3.189-12.304-4.783-19.104-4.783Z"/><path fill="#DCE0EA" d="M41.35 130.727c-7.581 0-14.395-1.479-20.444-4.436-6.008-2.998-10.806-7.106-14.395-12.322-3.588-5.217-5.503-11.172-5.745-17.868H18.91c.444 5.422 2.803 9.879 7.077 13.37 4.274 3.491 9.395 5.237 15.363 5.237 4.758 0 8.971-1.109 12.64-3.327 3.71-2.259 6.613-5.36 8.71-9.303 2.137-3.943 3.206-8.441 3.206-13.493 0-5.134-1.09-9.714-3.267-13.74-2.177-4.025-5.18-7.188-9.012-9.488-3.79-2.3-8.145-3.47-13.064-3.511-3.75 0-7.52.657-11.31 1.971-3.79 1.314-6.855 3.04-9.193 5.175L2.943 66.405 9.899 2.822h68.103v16.327h-52.56l-3.93 35.303h.725c2.42-2.382 5.625-4.374 9.617-5.976 4.032-1.602 8.346-2.403 12.943-2.403 7.54 0 14.254 1.828 20.14 5.483 5.928 3.656 10.585 8.647 13.972 14.972 3.428 6.284 5.121 13.513 5.08 21.687.041 8.174-1.773 15.465-5.443 21.872-3.629 6.408-8.669 11.46-15.12 15.157-6.411 3.655-13.77 5.483-22.077 5.483ZM295.404 131.097c-9.557-.041-17.722-2.609-24.496-7.702-6.774-5.093-11.955-12.507-15.544-22.241-3.589-9.735-5.383-21.462-5.383-35.18 0-13.678 1.794-25.364 5.383-35.057 3.629-9.694 8.83-17.087 15.605-22.18 6.814-5.094 14.959-7.64 24.435-7.64 9.475 0 17.6 2.567 24.374 7.701 6.774 5.093 11.956 12.487 15.544 22.18 3.629 9.653 5.444 21.318 5.444 34.995 0 13.76-1.795 25.508-5.383 35.242-3.589 9.694-8.77 17.108-15.544 22.242-6.774 5.093-14.919 7.64-24.435 7.64Zm0-16.451c8.386 0 14.939-4.169 19.656-12.507 4.758-8.338 7.137-20.393 7.137-36.165 0-10.475-1.088-19.326-3.266-26.555-2.137-7.27-5.221-12.774-9.254-16.512-3.991-3.779-8.749-5.668-14.273-5.668-8.347 0-14.899 4.19-19.657 12.569-4.758 8.379-7.157 20.434-7.198 36.166 0 10.514 1.069 19.407 3.206 26.677 2.177 7.23 5.262 12.713 9.254 16.45 3.992 3.697 8.79 5.545 14.395 5.545Z"/></svg>
