<svg xmlns="http://www.w3.org/2000/svg" fill="none" viewBox="0 0 340 130"><path fill="#DCE0EA" d="M172.538 0c-10.97 0-21.202 2.99-30.695 8.971-9.177 5.643-16.402 13.373-21.676 23.19-5.591 10.157-8.386 21.103-8.386 32.839 0 11.736 2.795 22.682 8.386 32.838 5.274 9.818 12.499 17.605 21.676 23.36 9.493 5.868 19.725 8.802 30.695 8.802 10.97 0 21.201-2.934 30.695-8.802 9.176-5.755 16.455-13.542 21.834-23.36 5.485-10.156 8.228-21.102 8.228-32.838s-2.743-22.682-8.228-32.839c-5.379-9.817-12.658-17.547-21.834-23.19C193.739 2.991 183.508 0 172.538 0Zm0 10.833c9.177 0 17.721 2.483 25.632 7.448 7.594 4.74 13.607 11.172 18.037 19.297 4.641 8.464 6.961 17.604 6.961 27.422 0 9.818-2.32 18.958-6.961 27.422-4.43 8.125-10.443 14.557-18.037 19.297-7.911 4.965-16.455 7.448-25.632 7.448-9.177 0-17.721-2.483-25.632-7.448-7.594-4.74-13.607-11.172-18.037-19.297-4.641-8.464-6.962-17.604-6.962-27.422 0-9.818 2.321-18.958 6.962-27.422 4.43-8.125 10.443-14.557 18.037-19.297 7.911-4.965 16.455-7.448 25.632-7.448Zm-22.784 32.5c-2.109 0-3.903.79-5.379 2.37-1.477 1.58-2.215 3.498-2.215 5.755 0 2.257.738 4.176 2.215 5.756 1.476 1.58 3.27 2.37 5.379 2.37 2.11 0 3.903-.79 5.38-2.37 1.476-1.58 2.215-3.499 2.215-5.756s-.739-4.175-2.215-5.755c-1.477-1.58-3.27-2.37-5.38-2.37Zm45.568 0c-2.11 0-3.903.79-5.38 2.37-1.477 1.58-2.215 3.498-2.215 5.755 0 2.257.738 4.176 2.215 5.756 1.477 1.58 3.27 2.37 5.38 2.37 2.109 0 3.902-.79 5.379-2.37 1.477-1.58 2.215-3.499 2.215-5.756s-.738-4.175-2.215-5.755c-1.477-1.58-3.27-2.37-5.379-2.37Zm-22.784 32.5c-6.645 0-12.869 1.637-18.67 4.91-5.591 3.272-10.284 7.673-14.082 13.202l8.228 6.263c2.848-4.175 6.381-7.448 10.6-9.817 4.325-2.483 8.966-3.724 13.924-3.724 4.957 0 9.546 1.241 13.765 3.724 4.325 2.37 7.911 5.642 10.759 9.817l8.228-6.263c-3.798-5.53-8.492-9.93-14.082-13.203-5.802-3.272-12.025-4.909-18.67-4.909ZM0 103.975V88.202L52.595 0h11.708v23.218h-7.429L19.255 86.435v1.01h72.088v16.53H0Zm57.706 25.236V99.18l.119-7.193V0h17.413v129.211H57.706ZM248.656 103.975V88.202L301.251 0h11.708v23.218h-7.429l-37.619 63.217v1.01H340v16.53h-91.344Zm57.706 25.236V99.18l.119-7.193V0h17.413v129.211h-17.532Z"/></svg>
