<svg xmlns="http://www.w3.org/2000/svg" fill="none" viewBox="0 0 340 130"><path fill="#DCE0EA" d="M172.508 2.114c-10.968 0-21.198 2.91-30.689 8.732-9.176 5.492-16.4 13.017-21.673 22.573-5.59 9.886-8.384 20.541-8.384 31.965s2.794 22.078 8.384 31.964c5.273 9.557 12.497 17.136 21.673 22.738 9.491 5.712 19.721 8.568 30.689 8.568 10.969 0 21.198-2.856 30.69-8.568 9.175-5.602 16.452-13.181 21.831-22.738 5.484-9.886 8.226-20.54 8.226-31.964s-2.742-22.079-8.226-31.965c-5.379-9.556-12.656-17.08-21.831-22.573-9.492-5.821-19.721-8.732-30.69-8.732Zm0 10.545c9.176 0 17.718 2.416 25.628 7.25 7.593 4.613 13.605 10.874 18.034 18.783 4.64 8.238 6.961 17.135 6.961 26.692 0 9.556-2.321 18.454-6.961 26.692-4.429 7.909-10.441 14.17-18.034 18.783-7.91 4.833-16.452 7.25-25.628 7.25-9.175 0-17.717-2.417-25.627-7.25-7.593-4.613-13.605-10.874-18.034-18.783-4.641-8.238-6.961-17.136-6.961-26.692 0-9.557 2.32-18.454 6.961-26.692 4.429-7.909 10.441-14.17 18.034-18.784 7.91-4.833 16.452-7.25 25.627-7.25Zm-22.78 31.635c-2.109 0-3.902.769-5.378 2.306-1.477 1.538-2.215 3.406-2.215 5.602 0 2.197.738 4.065 2.215 5.603 1.476 1.537 3.269 2.306 5.378 2.306 2.11 0 3.903-.769 5.379-2.306 1.477-1.538 2.215-3.406 2.215-5.602 0-2.197-.738-4.065-2.215-5.603-1.476-1.537-3.269-2.306-5.379-2.306Zm45.56 0c-2.109 0-3.902.769-5.378 2.306-1.477 1.538-2.215 3.406-2.215 5.602 0 2.197.738 4.065 2.215 5.603 1.476 1.537 3.269 2.306 5.378 2.306 2.11 0 3.903-.769 5.379-2.306 1.477-1.538 2.215-3.406 2.215-5.602 0-2.197-.738-4.065-2.215-5.603-1.476-1.537-3.269-2.306-5.379-2.306Zm-22.78 31.635c-6.644 0-12.866 1.593-18.667 4.778-5.589 3.185-10.282 7.47-14.079 12.852l8.226 6.096c2.848-4.064 6.381-7.25 10.599-9.556 4.324-2.417 8.965-3.625 13.921-3.625 4.957 0 9.545 1.208 13.763 3.625 4.324 2.306 7.91 5.492 10.758 9.556l8.226-6.096c-3.797-5.383-8.49-9.667-14.08-12.852-5.8-3.185-12.022-4.778-18.667-4.778ZM0 103.321V87.968L52.587 2.114h11.705v22.6h-7.427L19.252 86.248v.982h72.076v16.09H0Zm57.697 24.565V98.654l.118-7.001V2.113h17.41v125.773H57.698ZM297.321 130c-8.095 0-15.326-1.462-21.692-4.387-6.327-2.924-11.337-6.982-15.031-12.172-3.655-5.231-5.62-11.286-5.895-18.165h18.509c.236 3.748 1.435 7.002 3.596 9.762 2.201 2.719 5.069 4.819 8.606 6.302 3.537 1.483 7.466 2.225 11.789 2.225 4.755 0 8.96-.865 12.615-2.595 3.694-1.73 6.582-4.14 8.665-7.23 2.082-3.13 3.124-6.734 3.124-10.812 0-4.243-1.042-7.97-3.124-11.184-2.044-3.254-5.05-5.808-9.019-7.661-3.93-1.854-8.685-2.78-14.265-2.78h-10.198V55.731h10.198c4.48 0 8.41-.844 11.789-2.533 3.419-1.69 6.091-4.037 8.017-7.044 1.925-3.048 2.888-6.611 2.888-10.69 0-3.912-.845-7.31-2.534-10.194-1.651-2.925-4.009-5.21-7.074-6.858-3.026-1.648-6.602-2.472-10.728-2.472-3.93 0-7.604.762-11.023 2.286-3.38 1.483-6.13 3.625-8.252 6.426-2.123 2.76-3.262 6.076-3.419 9.948h-17.625c.196-6.838 2.122-12.852 5.777-18.042 3.693-5.19 8.566-9.248 14.618-12.172C283.685 1.462 290.405 0 297.793 0c7.741 0 14.422 1.586 20.041 4.758 5.659 3.13 10.021 7.311 13.086 12.542 3.105 5.232 4.637 10.957 4.598 17.177.039 7.085-1.847 13.099-5.659 18.042-3.772 4.943-8.802 8.259-15.09 9.948v.988c8.017 1.277 14.226 4.614 18.627 10.01 4.441 5.396 6.641 12.09 6.602 20.08.039 6.962-1.808 13.202-5.541 18.722-3.694 5.52-8.744 9.865-15.149 13.037-6.406 3.131-13.735 4.696-21.987 4.696Z"/></svg>
