<svg xmlns="http://www.w3.org/2000/svg" fill="none" viewBox="0 0 76 76"><rect width="76" height="76" fill="#E6EDFF" rx="16"/><rect width="66" height="66" x="5" y="5" stroke="#14538D" stroke-width="2" rx="15"/><path fill="#14538D" d="M12.24 28.8c1.57-8.15 8.04-13.63 19.86-16.75.13-.05.21-.05.34-.05H47.1c.61 0 1.18.4 1.31 1 .22.81-.35 1.63-1.14 1.72-10.4 1.22-10.4 3.48-10.4 4.66 0 .27.34 6.61 29.08 13.17.61.14 1.05.68 1.05 1.32v1.27c0 5.38-1.18 10.59-3.46 15.3-.3.59-1 .86-1.57.59-.61-.28-1.27-.55-1.92-.86a1.31 1.31 0 0 0-1.75.58c-.35.68-.05 1.54.65 1.86.57.27 1.14.5 1.66.73.57.22.75.95.4 1.44a35.32 35.32 0 0 1-3.46 4.26A31.82 31.82 0 0 1 34.45 69c-.39 0-.78-.18-1-.5-19.42-25.13-22.44-33.37-21.21-39.7Zm32.85 16.52c1.44.9 2.97 1.77 4.5 2.63.22.09.4.18.61.18.48 0 .92-.27 1.14-.73.35-.67.09-1.49-.52-1.85a131.9 131.9 0 0 1-4.42-2.58 1.28 1.28 0 0 0-1.8.5c-.35.63-.13 1.49.49 1.85ZM32.36 36a70.11 70.11 0 0 0 4.07 3.44 1.28 1.28 0 0 0 1.83-.28 1.4 1.4 0 0 0-.26-1.9A81.28 81.28 0 0 1 34.1 34a1.28 1.28 0 0 0-1.83.1c-.48.54-.44 1.4.09 1.9Zm-7.61-10.96c.17.77.48 1.58.83 2.35a1.29 1.29 0 0 0 1.75.64c.65-.32.92-1.13.61-1.81a8.63 8.63 0 0 1-.66-1.86 1.29 1.29 0 0 0-1.61-.95c-.7.13-1.1.9-.92 1.63Z"/></svg>
