<svg xmlns="http://www.w3.org/2000/svg" fill="none" viewBox="0 0 32 32"><path fill="#14538D" d="M27.687 7.676a1.179 1.179 0 0 0-.723-.56l-5.813-1.574v18.9a2.391 2.391 0 0 1-2.388 2.392h-4.661l7.002 1.899a1.2 1.2 0 0 0 1.474-.84l5.22-19.311a1.18 1.18 0 0 0-.111-.906ZM8.57 6.453V4.094L5.012 7.647H7.37a1.197 1.197 0 0 0 1.2-1.194Z"/><path fill="#14538D" d="M19.116 25.584a1.193 1.193 0 0 0 .84-1.141V4.436a1.196 1.196 0 0 0-1.179-1.179H9.765v3.196A2.389 2.389 0 0 1 7.377 8.84H4.166v15.602a1.194 1.194 0 0 0 1.194 1.179h13.402c.12.005.239-.008.354-.038ZM9.42 20.572H6.43a.598.598 0 1 1 0-1.197h2.99a.598.598 0 1 1 0 1.197Zm2.83-2.795H6.43a.599.599 0 1 1 0-1.197h5.82a.599.599 0 0 1 0 1.197Zm2.706-2.789H6.43a.598.598 0 1 1 0-1.197h8.526a.598.598 0 1 1 0 1.197ZM17.57 12.2H6.43a.599.599 0 1 1 0-1.197H17.57a.599.599 0 0 1 0 1.197Z"/></svg>
