<svg xmlns="http://www.w3.org/2000/svg" fill="none" viewBox="0 0 32 32"><path fill="#14538D" d="M28.897 23.484h-2.082v-7.453c0-.25-.167-.416-.416-.416h-9.993v-7.12H23.9a.448.448 0 0 0 .417-.416V3.083a.448.448 0 0 0-.417-.416H8.08a.448.448 0 0 0-.416.416v4.996c0 .208.208.417.416.417h7.494v7.119H5.705c-.25 0-.416.167-.416.417v7.452H3.082a.417.417 0 0 0-.416.416v4.997c0 .25.208.416.416.416H8.08a.417.417 0 0 0 .416-.416V23.9a.417.417 0 0 0-.416-.416H6.122v-7.036h9.45v7.036h-2.08a.417.417 0 0 0-.417.416v4.997c0 .25.208.416.416.416h4.996a.417.417 0 0 0 .417-.416V23.9a.417.417 0 0 0-.417-.416h-2.081v-7.036h9.575v7.036H23.9a.417.417 0 0 0-.416.416v4.997c0 .25.208.416.416.416h4.996c.25 0 .416-.166.416-.416V23.9c0-.25-.166-.416-.416-.416ZM10.453 5.873c-.042.041-.084.083-.125.083-.042 0-.125.041-.167.041-.041 0-.125 0-.166-.041-.042-.042-.084-.042-.125-.084a.377.377 0 0 1-.125-.29c0-.043 0-.126.041-.167 0-.042.042-.084.084-.125.125-.125.291-.167.458-.084.041.042.083.042.125.084.041.041.083.083.083.125.042.041.042.124.042.166a.378.378 0 0 1-.125.292Zm1.665 0c-.042.041-.083.083-.125.083-.042 0-.125.041-.166.041-.042 0-.125 0-.167-.041-.042-.042-.083-.042-.125-.084a.377.377 0 0 1-.125-.29c0-.043 0-.126.042-.167 0-.042.041-.084.083-.125.083-.084.25-.125.375-.125.041 0 .041 0 .083.041.042 0 .042.042.083.042 0 0 .042.042.084.042.041.041.083.083.083.125v.166a.378.378 0 0 1-.125.292Zm1.665 0c-.041.041-.083.083-.124.083-.042 0-.126.041-.167.041-.042 0-.125 0-.167-.041-.041 0-.083-.042-.124-.084a.377.377 0 0 1-.126-.29c0-.043 0-.126.042-.167 0-.042.042-.084.083-.125.042-.042.084-.084.125-.084.167-.083.334-.041.458.084.042.041.084.083.084.124.041.042.041.125.041.167a.378.378 0 0 1-.125.292Z"/></svg>
