<svg xmlns="http://www.w3.org/2000/svg" fill="none" viewBox="0 0 32 32"><path fill="#14538D" d="M15.466 12.206v3.556H11.91a4.122 4.122 0 0 1 3.556-3.556ZM20.046 15.762H16.49v-3.556a4.122 4.122 0 0 1 3.556 3.556Z"/><path fill="#14538D" d="M15.466 8.091v3.085a5.14 5.14 0 0 0-4.586 4.586H7.795a8.212 8.212 0 0 1 7.67-7.67Z"/><path fill="#14538D" d="M15.466 2.963v4.104a9.23 9.23 0 0 0-8.696 8.695H2.666c.037-1 .188-1.991.45-2.956a2.562 2.562 0 1 0 2.255-4.571 13.25 13.25 0 0 1 10.095-5.272ZM18.35 7.364a9.09 9.09 0 0 0-1.86-.297V2.963c1.119.042 2.228.226 3.3.548a5.958 5.958 0 0 0-1.44 3.853ZM24.16 15.747v.015h-3.084a5.14 5.14 0 0 0-4.586-4.586V8.092c.665.04 1.323.162 1.958.364.363 1.982 1.721 3.284 2.843 4.36a6.458 6.458 0 0 1 1.61 1.947 1.518 1.518 0 0 0 1.26.984ZM29.289 15.762h-4.104a3.844 3.844 0 0 0-.02-.246c.331-.208.57-.537.665-.917.144-.58.825-1.22 1.553-1.901.348-.328.722-.676 1.08-1.06h.001c.492 1.322.77 2.714.825 4.124ZM25.185 16.787a9.23 9.23 0 0 1-8.695 8.695v4.105a13.233 13.233 0 0 0 8.418-3.439 2.554 2.554 0 1 1 3.049-4.063 13.048 13.048 0 0 0 1.332-5.298h-4.104Zm-13.276 0a4.122 4.122 0 0 0 3.556 3.556v-3.556H11.91Zm9.167 0a5.14 5.14 0 0 1-4.586 4.586v3.084a8.212 8.212 0 0 0 7.67-7.67h-3.084Zm-4.586 0v3.556a4.123 4.123 0 0 0 3.556-3.556H16.49Zm-5.61 0H7.795a8.048 8.048 0 0 0 .938 3.325c.061-.03.123-.056.19-.081.287-.116.596-.174.906-.17a2.562 2.562 0 0 1 2.562 2.562c.004.328-.06.652-.19.953a.704.704 0 0 1-.061.144 8.05 8.05 0 0 0 3.325.937v-3.084a5.14 5.14 0 0 1-4.585-4.586Zm.64 7.558a2.56 2.56 0 0 1-3.612-3.612 8.971 8.971 0 0 1-1.138-3.946H2.666a13.33 13.33 0 0 0 12.8 12.799v-4.104a8.902 8.902 0 0 1-3.946-1.138ZM26.036 7.564a1.698 1.698 0 1 1-3.397-.005 1.698 1.698 0 0 1 3.397.005Z"/><path fill="#14538D" d="M24.342 2.44a4.968 4.968 0 0 0-4.965 4.96c0 2.162 1.394 3.494 2.623 4.673.79.763 1.538 1.48 1.86 2.331.076.2.268.333.482.333h.026a.519.519 0 0 0 .471-.39c.216-.865 1.004-1.608 1.845-2.397 1.224-1.153 2.618-2.46 2.618-4.55a4.965 4.965 0 0 0-4.96-4.96Zm0 7.85a2.726 2.726 0 1 1-.01-5.453 2.726 2.726 0 0 1 .01 5.453ZM11.365 22.423c.002.19-.035.378-.107.554a1.534 1.534 0 1 1-1.983-1.983c.175-.073.363-.11.553-.108a1.542 1.542 0 0 1 1.537 1.537ZM4.747 9.127a1.552 1.552 0 1 0-.562 3.052 1.552 1.552 0 0 0 .562-3.052ZM27.451 23.033a1.536 1.536 0 1 0-1.768 2.362 1.536 1.536 0 0 0 1.768-2.362Z"/></svg>
