<svg xmlns="http://www.w3.org/2000/svg" fill="none" viewBox="0 0 149 149"><path fill="url(#a)" fill-rule="evenodd" d="M102.148 22.3a3.932 3.932 0 0 1-5.194 1.985C71.54 12.92 41.128 22.398 26.901 47.039c-14.227 24.642-7.23 55.719 15.32 72.048a3.93 3.93 0 0 1-4.61 6.368C11.83 106.787 3.828 71.276 20.09 43.11c16.262-28.166 51.017-38.994 80.073-26.001a3.93 3.93 0 0 1 1.984 5.194V22.3ZM46.965 126.808a3.933 3.933 0 0 1 5.194-1.984c25.415 11.364 55.826 1.886 70.053-22.755 14.226-24.641 7.229-55.716-15.322-72.045a3.93 3.93 0 0 1 4.612-6.368c25.78 18.667 33.783 54.179 17.519 82.345-16.262 28.168-51.017 38.994-80.073 26.002a3.932 3.932 0 0 1-1.984-5.194l.001-.001Zm61.739-65.126a3.93 3.93 0 1 0-5.405-5.71L67.252 90.104 48.427 72.28a3.93 3.93 0 1 0-5.405 5.71l21.527 20.383a3.93 3.93 0 0 0 5.406 0l38.749-36.691Z" clip-rule="evenodd"/><defs><linearGradient id="a" x1="47.048" x2="123.049" y1="19.202" y2="22.413" gradientUnits="userSpaceOnUse"><stop stop-color="#1D65A8"/><stop offset="1" stop-color="#14538D"/></linearGradient></defs></svg>
