<svg xmlns="http://www.w3.org/2000/svg" fill="currentColor" viewBox="0 0 20 20"><path d="M17.596 4.909h-.012V2.345a.395.395 0 0 0-.395-.395H2.814a.395.395 0 0 0-.394.395v2.564h-.013c-.761 0-1.38.62-1.38 1.38v5.853c0 .76.619 1.38 1.38 1.38h1.907v4.143c0 .218.177.394.395.394h10.783a.395.395 0 0 0 .394-.394v-4.143h1.71c.762 0 1.381-.62 1.381-1.38V6.29c0-.761-.62-1.381-1.38-1.381ZM3.21 2.739h13.586v2.17H3.209v-2.17ZM15.098 17.27H5.103v-5.786h9.995v5.786Zm3.09-5.128a.593.593 0 0 1-.592.591h-1.71v-1.249h.461a.395.395 0 0 0 0-.789H3.657a.395.395 0 0 0 0 .79h.657v1.248H2.407a.593.593 0 0 1-.592-.591V6.29c0-.327.266-.592.592-.592h15.19c.326 0 .591.265.591.592v5.852Zm-2.504-5.113a1.059 1.059 0 0 0 0 2.116 1.059 1.059 0 0 0 0-2.116Zm0 1.327a.269.269 0 1 1 0-.538.269.269 0 0 1 0 .538ZM12.59 7.03a1.059 1.059 0 0 0 0 2.116 1.059 1.059 0 0 0 0-2.116Zm0 1.327a.269.269 0 1 1 0-.538.269.269 0 0 1 0 .538Zm-5.745 5.561h6.313a.395.395 0 0 0 0-.789H6.845a.395.395 0 0 0 0 .79Zm0 2.104h6.313a.395.395 0 0 0 0-.789H6.845a.395.395 0 0 0 0 .79Z"/></svg>
