<svg xmlns="http://www.w3.org/2000/svg" viewBox="0 0 18 18"><g fill="currentColor" clip-path="url(#a)"><path d="M16.212 14.41H1.802A1.77 1.77 0 0 0 0 16.212c0 .96.78 1.8 1.801 1.8h14.41c1.021 0 1.802-.84 1.802-1.8a1.77 1.77 0 0 0-1.802-1.802ZM2.402 13.21h13.21v-3.003a6.586 6.586 0 0 0-6.605-6.604 6.586 6.586 0 0 0-6.605 6.604v3.002ZM9.007 3.002c.36 0 .6-.24.6-.6V.6c0-.36-.24-.6-.6-.6s-.6.24-.6.6v1.802c0 .36.24.6.6.6ZM3.183 4.023c.12.12.24.18.42.18s.3-.06.42-.18a.58.58 0 0 0 0-.84L2.222 1.38a.58.58 0 0 0-.84 0 .58.58 0 0 0 0 .84l1.8 1.802ZM14.41 4.203c.18 0 .3-.06.42-.18l1.802-1.801a.58.58 0 0 0 0-.841.58.58 0 0 0-.84 0L13.99 3.182a.58.58 0 0 0 0 .84c.12.121.24.181.42.181Z"/></g><defs><clipPath id="a"><path fill="#fff" d="M0 0h18v18H0z"/></clipPath></defs></svg>
