<svg xmlns="http://www.w3.org/2000/svg" fill="currentColor" viewBox="0 0 24 24"><path fill-rule="evenodd" d="M20 9.997h-.8a.4.4 0 0 0 0 .8h.8a.4.4 0 0 0 0-.8ZM19.049 7.251l-.693.4a.4.4 0 0 0 .4.693l.693-.4a.4.4 0 0 0-.4-.693ZM16.853 5.347l-.4.693a.4.4 0 0 0 .693.4l.4-.693a.4.4 0 0 0-.693-.4ZM14 4.797v.8a.4.4 0 0 0 .8 0v-.8a.4.4 0 0 0-.8 0ZM11.253 5.747l.4.693a.4.4 0 0 0 .693-.4l-.4-.693a.4.4 0 0 0-.693.4ZM9.35 7.944l.692.4a.4.4 0 0 0 .4-.693l-.693-.4a.4.4 0 0 0-.4.693ZM18.356 13.143l.693.4a.4.4 0 0 0 .4-.692l-.693-.4a.4.4 0 0 0-.4.692ZM18 15.197a2.801 2.801 0 0 0-3.728-2.643.4.4 0 0 1-.506-.235A3.604 3.604 0 0 0 10.4 9.997a3.602 3.602 0 0 0-3.6 3.6.4.4 0 0 1-.4.4 2.8 2.8 0 1 0 0 5.6h12a2 2 0 0 0 0-4 .4.4 0 0 1-.4-.4Z" clip-rule="evenodd"/><path fill="#14538D" fill-rule="evenodd" d="M17.416 12.361A3.602 3.602 0 0 0 14.4 6.797a3.603 3.603 0 0 0-3.408 2.44 4.407 4.407 0 0 1 3.376 2.457 3.607 3.607 0 0 1 3.05.667Z" clip-rule="evenodd"/></svg>
