<svg xmlns="http://www.w3.org/2000/svg" viewBox="0 0 18 18"><path fill="currentColor" d="M17.904 13.227a1.239 1.239 0 0 0-.06-.118c-.313-.563-.91-1.255-1.79-2.074l-.02-.019-.008-.01-.01-.009h-.01c-.4-.381-.652-.638-.758-.77-.194-.25-.238-.503-.132-.76.075-.194.357-.603.844-1.23.256-.331.459-.597.609-.797 1.08-1.44 1.55-2.36 1.406-2.76l-.056-.093c-.038-.057-.134-.108-.29-.155-.157-.047-.357-.055-.6-.024l-2.7.019a.35.35 0 0 0-.187.005l-.122.028-.047.023-.037.029a.417.417 0 0 0-.103.098.646.646 0 0 0-.094.164 15.327 15.327 0 0 1-1.003 2.112c-.23.388-.443.725-.637 1.01a4.851 4.851 0 0 1-.487.628c-.132.135-.25.243-.357.324-.106.081-.187.116-.243.103a6.821 6.821 0 0 1-.16-.037.624.624 0 0 1-.21-.23 1.03 1.03 0 0 1-.108-.366 4.039 4.039 0 0 1-.033-.38 7.997 7.997 0 0 1 .005-.451c.006-.194.01-.325.01-.394 0-.238.004-.496.013-.775.01-.278.017-.499.024-.661.006-.163.009-.335.009-.517 0-.181-.011-.323-.033-.427a1.465 1.465 0 0 0-.098-.3.505.505 0 0 0-.192-.225 1.082 1.082 0 0 0-.314-.127c-.331-.075-.753-.116-1.265-.122-1.162-.013-1.91.063-2.24.225-.131.069-.25.163-.356.282-.113.137-.128.213-.047.225.375.056.64.19.796.403l.057.113c.043.082.087.226.13.432.045.206.073.435.085.685.031.457.031.848 0 1.173-.031.326-.06.58-.089.76a1.524 1.524 0 0 1-.239.648.161.161 0 0 1-.047.047.701.701 0 0 1-.253.047c-.087 0-.193-.044-.318-.131a2.25 2.25 0 0 1-.39-.362 4.831 4.831 0 0 1-.454-.643c-.169-.275-.344-.6-.525-.976l-.15-.272c-.093-.175-.221-.43-.384-.765a14.761 14.761 0 0 1-.43-.972.619.619 0 0 0-.226-.3l-.047-.028a.641.641 0 0 0-.15-.08.994.994 0 0 0-.215-.06L.6 4.407c-.262 0-.44.06-.534.178l-.038.057a.304.304 0 0 0-.028.15c0 .069.019.153.056.253C.431 5.93.84 6.78 1.28 7.6c.44.82.823 1.48 1.148 1.98.325.501.656.974.994 1.418.337.444.56.729.67.854.11.125.195.22.257.282l.235.225c.15.15.37.33.66.54.291.21.613.416.966.62a5.23 5.23 0 0 0 1.232.497c.469.128.925.18 1.369.155h1.077c.219-.02.384-.088.497-.207l.037-.047a.624.624 0 0 0 .07-.173.956.956 0 0 0 .033-.258 3.1 3.1 0 0 1 .061-.728c.047-.216.1-.378.16-.488a1.2 1.2 0 0 1 .36-.413.605.605 0 0 1 .075-.033c.15-.05.327-.001.53.146s.394.329.572.544c.178.216.392.459.642.728.25.269.468.469.656.6l.187.113c.125.075.288.144.488.207.2.062.374.078.524.047l2.4-.038c.237 0 .421-.04.552-.117.132-.079.21-.165.235-.258a.727.727 0 0 0 .004-.32 1.179 1.179 0 0 0-.066-.248Z"/></svg>
