<svg xmlns="http://www.w3.org/2000/svg" fill="currentColor" stroke="currentColor" viewBox="0 0 24 24"><path stroke-width=".5" d="M21.51 11.292a.56.56 0 1 1 1.119 0v8.422c0 .788-.322 1.505-.84 2.023l-.033.031a2.85 2.85 0 0 1-1.986.81H4.223a2.85 2.85 0 0 1-2.02-.842 2.85 2.85 0 0 1-.84-2.023v-8.422a.56.56 0 1 1 1.12 0v8.422c0 .48.195.916.51 1.232.314.316.75.511 1.23.511H19.77c.468 0 .893-.185 1.205-.485l.024-.026a1.74 1.74 0 0 0 .51-1.232v-8.422Zm-7.07 4.844V9.924c0-.309.251-.56.56-.56h2.304c.137 0 .257-.02.353-.059a.474.474 0 0 0 .185-.125l.022-.03-5.329-6.405a.48.48 0 0 0-.186-.125l-.019-.008a1 1 0 0 0-.334-.051.968.968 0 0 0-.353.058.471.471 0 0 0-.185.127L6.128 9.15l.037.047c.041.043.1.08.17.108l.019.008a.999.999 0 0 0 .334.05h2.304c.309 0 .56.252.56.561v6.212a.454.454 0 0 0 .453.454h3.981a.453.453 0 0 0 .454-.454Zm1.12-5.651v5.65c0 .434-.177.829-.462 1.114a1.568 1.568 0 0 1-1.111.462h-3.982a1.572 1.572 0 0 1-1.573-1.575v-5.651H6.688c-.26 0-.51-.046-.734-.13l-.033-.013a1.582 1.582 0 0 1-.595-.41l-.032-.036a1.153 1.153 0 0 1-.285-.746c0-.263.095-.518.285-.746L10.6 2.028c.162-.194.377-.345.627-.445a2.09 2.09 0 0 1 .768-.143c.26 0 .51.046.734.13l.034.013c.25.1.465.25.627.445l5.307 6.376c.19.228.285.483.285.746s-.095.518-.285.746a1.588 1.588 0 0 1-.627.446 2.092 2.092 0 0 1-.767.143H15.56Z"/></svg>
