<svg xmlns="http://www.w3.org/2000/svg" viewBox="0 0 18 18"><path fill="currentColor" fill-rule="evenodd" d="M10.767 1.506a.64.64 0 0 0-.711.57.645.645 0 0 0 .567.712 5.184 5.184 0 0 1 4.595 4.604.643.643 0 1 0 1.278-.144c-.34-3.042-2.696-5.404-5.73-5.742Zm.047 2.611a.64.64 0 0 0-.753.51.647.647 0 0 0 .508.758 2.596 2.596 0 0 1 2.057 2.062v.001a.644.644 0 0 0 .755.51.649.649 0 0 0 .508-.758 3.88 3.88 0 0 0-3.075-3.083Zm1.186 7.2c.339-.194.721-.415 1.204-.312.436.092 1.926 1.3 2.334 1.72.267.274.416.558.439.84.04 1.112-1.47 2.381-1.745 2.54-.365.262-.79.395-1.268.395-.487 0-1.031-.139-1.624-.415-3.218-1.343-8.133-6.162-9.433-9.355-.54-1.188-.543-2.169-.009-2.905.213-.346 1.427-1.79 2.513-1.744.29.024.57.173.846.443.417.408 1.595 1.902 1.687 2.34.1.487-.12.875-.317 1.215a5.77 5.77 0 0 1-.16.255c-.235.361-.548.842-.437 1.148.793 1.946 2.623 3.643 4.57 4.44.3.11.78-.204 1.14-.44.094-.062.18-.118.252-.16l.008-.004Z" clip-rule="evenodd"/></svg>
